<svg width="30" height="31" viewBox="0 0 30 31" fill="none" xmlns="http://www.w3.org/2000/svg">
<path d="M29.2264 10.8421L19.9901 1.60586C19.4925 1.10909 18.8182 0.830078 18.1151 0.830078C17.412 0.830078 16.7377 1.10909 16.2401 1.60586L1.60635 16.2459C1.10958 16.7434 0.830566 17.4178 0.830566 18.1209C0.830566 18.824 1.10958 19.4983 1.60635 19.9959L2.7451 21.1346L10.3988 28.7884H9.3401C9.17898 28.7884 9.02446 28.8524 8.91053 28.9663C8.7966 29.0802 8.7326 29.2347 8.7326 29.3959C8.7326 29.557 8.7966 29.7115 8.91053 29.8254C9.02446 29.9394 9.17898 30.0034 9.3401 30.0034H21.4926C21.6537 30.0034 21.8082 29.9394 21.9222 29.8254C22.0361 29.7115 22.1001 29.557 22.1001 29.3959C22.1001 29.2347 22.0361 29.0802 21.9222 28.9663C21.8082 28.8524 21.6537 28.7884 21.4926 28.7884H15.0288L29.2264 14.5859C29.7218 14.0889 30 13.4158 30 12.714C30 12.0122 29.7218 11.3391 29.2264 10.8421V10.8421ZM28.3676 13.7271L13.7276 28.3659C13.5949 28.4988 13.4373 28.6041 13.2637 28.6757C13.0902 28.7474 12.9041 28.784 12.7163 28.7834V28.7834C12.5288 28.7839 12.343 28.7472 12.1696 28.6756C11.9963 28.6039 11.8388 28.4987 11.7063 28.3659L4.0351 20.6946L18.0938 6.64086C18.153 6.58511 18.2004 6.51805 18.2332 6.44365C18.266 6.36925 18.2835 6.28902 18.2848 6.20772C18.286 6.12642 18.2709 6.04571 18.2403 5.97036C18.2098 5.89501 18.1644 5.82656 18.1069 5.76906C18.0494 5.71157 17.981 5.6662 17.9056 5.63565C17.8303 5.6051 17.7495 5.58998 17.6682 5.5912C17.5869 5.59242 17.5067 5.60994 17.4323 5.64273C17.3579 5.67553 17.2908 5.72292 17.2351 5.78211L3.17635 19.8396L2.46635 19.1296C2.19911 18.8601 2.04916 18.496 2.04916 18.1165C2.04916 17.737 2.19911 17.3728 2.46635 17.1034L17.1051 2.46586C17.3746 2.19862 17.7387 2.04867 18.1182 2.04867C18.4977 2.04867 18.8619 2.19862 19.1313 2.46586L22.4188 5.75336L8.35885 19.8121C8.25054 19.9271 8.19128 20.0798 8.19365 20.2377C8.19601 20.3957 8.25981 20.5465 8.37151 20.6582C8.48321 20.7699 8.63403 20.8337 8.79199 20.8361C8.94994 20.8384 9.1026 20.7792 9.2176 20.6709L23.2776 6.61211L28.3663 11.7009C28.635 11.9695 28.786 12.3338 28.7862 12.7137C28.7865 13.0936 28.6359 13.4581 28.3676 13.7271V13.7271Z" fill="white"/>
</svg>
