<svg width="8" height="14" viewBox="0 0 8 14" fill="none" xmlns="http://www.w3.org/2000/svg">
<path d="M1.6422 0.277154L7.8052 6.36615C7.86688 6.42666 7.91588 6.49887 7.94932 6.57854C7.98277 6.65821 8 6.74375 8 6.83015C8 6.91656 7.98277 7.0021 7.94932 7.08177C7.91588 7.16144 7.86688 7.23364 7.8052 7.29415L1.6422 13.3882C1.46066 13.5662 1.2165 13.666 0.962196 13.666C0.707889 13.666 0.463731 13.5662 0.282197 13.3882C0.193185 13.3003 0.122507 13.1957 0.074266 13.0803C0.0260253 12.965 0.00118351 12.8412 0.00118351 12.7162C0.00118351 12.5911 0.0260253 12.4673 0.074266 12.352C0.122507 12.2366 0.193185 12.132 0.282197 12.0442L5.5542 6.83215L0.281197 1.62215C0.192033 1.53432 0.121226 1.42963 0.072896 1.31418C0.0245657 1.19872 -0.000323296 1.07481 -0.000323296 0.949654C-0.000323296 0.824493 0.0245657 0.700583 0.072896 0.585131C0.121226 0.469678 0.192033 0.364989 0.281197 0.277154C0.462731 0.0990601 0.706889 -0.000707626 0.961196 -0.000707626C1.2155 -0.000707626 1.45966 0.0990601 1.6412 0.277154" fill="#4BDE95"/>
</svg>
